<svg width="18" height="19" viewBox="0 0 18 19" fill="none" xmlns="http://www.w3.org/2000/svg">
<g opacity="0.7">
<path fill-rule="evenodd" clip-rule="evenodd" d="M5.72727 5.02841C5.29328 5.02841 4.87707 5.20081 4.57019 5.50769C4.26331 5.81457 4.09091 6.23078 4.09091 6.66477V8.84659H9H13.9091V6.66477C13.9091 6.23078 13.7367 5.81457 13.4298 5.50769C13.1229 5.20081 12.7067 5.02841 12.2727 5.02841H5.72727ZM3 6.66477V9.39205V13.2102C3 13.9335 3.28734 14.6272 3.7988 15.1387C4.31026 15.6502 5.00395 15.9375 5.72727 15.9375H9H12.2727C12.996 15.9375 13.6897 15.6502 14.2012 15.1387C14.7127 14.6272 15 13.9335 15 13.2102V9.39308L15 9.39205V6.66477C15 5.94145 14.7127 5.24776 14.2012 4.7363C13.6897 4.22484 12.996 3.9375 12.2727 3.9375H5.72727C5.00396 3.9375 4.31026 4.22484 3.7988 4.7363C3.28734 5.24776 3 5.94146 3 6.66477ZM8.45455 9.9375V14.8466H5.72727C5.29328 14.8466 4.87707 14.6742 4.57019 14.3673C4.26331 14.0604 4.09091 13.6442 4.09091 13.2102V9.9375H8.45455ZM13.4298 14.3673C13.1229 14.6742 12.7067 14.8466 12.2727 14.8466H9.54545V9.9375H13.9091V13.2102C13.9091 13.6442 13.7367 14.0604 13.4298 14.3673ZM10.3636 12.392C10.3636 12.0908 10.6078 11.8466 10.9091 11.8466H12.5455C12.8467 11.8466 13.0909 12.0908 13.0909 12.392C13.0909 12.6933 12.8467 12.9375 12.5455 12.9375H10.9091C10.6078 12.9375 10.3636 12.6933 10.3636 12.392ZM5.84024 11.1882C5.62723 10.9752 5.28186 10.9752 5.06885 11.1882C4.85584 11.4012 4.85584 11.7465 5.06885 11.9596L5.50134 12.392L5.06885 12.8245C4.85584 13.0375 4.85584 13.3829 5.06885 13.5959C5.28186 13.8089 5.62723 13.8089 5.84024 13.5959L6.27273 13.1634L6.70521 13.5959C6.91823 13.8089 7.26359 13.8089 7.4766 13.5959C7.68962 13.3829 7.68962 13.0375 7.4766 12.8245L7.04412 12.392L7.4766 11.9596C7.68962 11.7465 7.68962 11.4012 7.4766 11.1882C7.26359 10.9752 6.91823 10.9752 6.70521 11.1882L6.27273 11.6207L5.84024 11.1882Z" fill="#133D65"/>
</g>
</svg>
