<svg width="18" height="18" viewBox="0 0 18 18" fill="none" xmlns="http://www.w3.org/2000/svg">
<g opacity="0.7">
<path d="M12.9375 14H5.375C5.01033 14 4.66059 13.8551 4.40273 13.5973C4.14487 13.3394 4 12.9897 4 12.625V5.0625C4 4.69783 4.14487 4.34809 4.40273 4.09023C4.66059 3.83237 5.01033 3.6875 5.375 3.6875H8.125V5.0625H5.375V12.625H12.9375V9.875H14.3125V12.625C14.3125 12.9897 14.1676 13.3394 13.9098 13.5973C13.6519 13.8551 13.3022 14 12.9375 14ZM9.29375 9.67356L8.32438 8.70144L12.6508 4.375H10.1875V3H15V7.8125H13.625V5.34781L9.29375 9.67356Z" fill="#2261DA"/>
</g>
</svg>
