<svg width="22" height="22" viewBox="0 0 22 22" fill="none" xmlns="http://www.w3.org/2000/svg">
<path d="M11 22.0001C17.0751 22.0001 22 17.0753 22 11.0001C22 4.92499 17.0751 0.00012207 11 0.00012207C4.92487 0.00012207 0 4.92499 0 11.0001C0 17.0753 4.92487 22.0001 11 22.0001Z" fill="#3E73C4"/>
<path d="M13.7651 12.4604C13.7651 11.0001 12.8851 10.4996 11.1251 10.2906C9.86838 10.1236 9.61745 9.79012 9.61745 9.20574C9.61745 8.62137 10.0368 8.24599 10.8742 8.24599C11.6284 8.24599 12.0478 8.49624 12.2568 9.12256C12.2785 9.18312 12.3184 9.23555 12.3708 9.2728C12.4233 9.31004 12.486 9.33031 12.5503 9.33087H13.2206C13.2594 9.3319 13.2979 9.32506 13.3339 9.31076C13.3699 9.29646 13.4026 9.275 13.43 9.24768C13.4575 9.22036 13.4791 9.18774 13.4936 9.15182C13.508 9.11589 13.515 9.0774 13.5142 9.03868V8.99743C13.4323 8.5443 13.203 8.13091 12.862 7.82147C12.521 7.51204 12.0873 7.32388 11.6284 7.28624V6.28524C11.6284 6.11818 11.5026 5.99306 11.2936 5.95112H10.6645C10.4974 5.95112 10.3716 6.07624 10.3297 6.28524V7.24499C9.07226 7.41137 8.27682 8.24599 8.27682 9.28962C8.27682 10.666 9.1142 11.2084 10.8742 11.4174C12.0478 11.6257 12.4245 11.8767 12.4245 12.5442C12.4245 13.2111 11.8381 13.6704 11.0419 13.6704C9.95226 13.6704 9.57551 13.2118 9.4497 12.5855C9.40845 12.4191 9.28195 12.3352 9.15613 12.3352H8.44388C8.40522 12.3343 8.36678 12.3412 8.33086 12.3556C8.29495 12.3699 8.26232 12.3914 8.23495 12.4187C8.20757 12.446 8.18602 12.4786 8.17159 12.5145C8.15716 12.5503 8.15016 12.5888 8.15101 12.6274V12.6687C8.31807 13.7123 8.98907 14.4631 10.3716 14.6721V15.6737C10.3716 15.8401 10.4974 15.9659 10.7064 16.0072H11.3355C11.5026 16.0072 11.6284 15.8821 11.6703 15.6737V14.6714C12.9278 14.4631 13.7651 13.5865 13.7651 12.4597V12.4604Z" fill="white"/>
<path d="M8.86326 16.8418C5.59489 15.6731 3.91876 12.0431 5.13426 8.83037C5.76264 7.07725 7.1452 5.74281 8.86326 5.1165C9.03101 5.03331 9.1142 4.90818 9.1142 4.69918V4.11481C9.1142 3.94843 9.03101 3.82331 8.86326 3.78137C8.82133 3.78137 8.73745 3.78137 8.69551 3.82262C7.75256 4.11709 6.87717 4.59519 6.11974 5.22937C5.36232 5.86355 4.73782 6.64129 4.28221 7.51781C3.8266 8.39434 3.54887 9.35233 3.46502 10.3366C3.38117 11.3209 3.49285 12.3121 3.79364 13.2531C4.54714 15.5906 6.34908 17.3849 8.69551 18.1357C8.86326 18.2189 9.03101 18.1357 9.07226 17.9686C9.1142 17.9274 9.1142 17.8847 9.1142 17.8016V17.2172C9.1142 17.0921 8.98908 16.9257 8.86326 16.8418V16.8418ZM13.3045 3.82331C13.1368 3.73943 12.969 3.82331 12.9278 3.98968C12.8858 4.03162 12.8858 4.07356 12.8858 4.15675V4.74112C12.8858 4.90818 13.011 5.07456 13.1368 5.15843C16.4051 6.32718 18.0813 9.95718 16.8658 13.1699C16.2374 14.923 14.8548 16.2574 13.1368 16.8837C12.969 16.9669 12.8858 17.0921 12.8858 17.3011V17.8854C12.8858 18.0518 12.969 18.1769 13.1368 18.2189C13.1787 18.2189 13.2626 18.2189 13.3045 18.1776C14.2475 17.8831 15.1229 17.4051 15.8803 16.7709C16.6377 16.1367 17.2622 15.359 17.7178 14.4824C18.1734 13.6059 18.4512 12.6479 18.535 11.6636C18.6189 10.6793 18.5072 9.68814 18.2064 8.74718C17.4529 6.36843 15.609 4.57406 13.3045 3.82331V3.82331Z" fill="white"/>
</svg>
