<svg width="47" height="23" viewBox="0 0 47 23" fill="none" xmlns="http://www.w3.org/2000/svg">
<path d="M23.1803 0C22.1892 0 21.2274 0.132791 20.3147 0.394967C16.5168 1.45048 13.5269 4.56255 12.5128 8.51562C12.2609 9.46558 12.1333 10.4666 12.1333 11.4983C12.1333 15.751 14.3545 19.4691 17.6519 21.4542C16.7033 19.762 16.1635 17.7939 16.1635 15.6965C16.1635 15.2811 16.1831 14.8691 16.2289 14.4674C16.7719 9.10126 20.8708 4.83494 26.0263 4.26973C26.4124 4.22206 26.8082 4.20163 27.2073 4.20163C29.2224 4.20163 31.1132 4.76343 32.739 5.75085C30.8384 2.31192 27.2662 0 23.1803 0Z" fill="#045599"/>
<path d="M33.8509 8.51562C32.9775 11.9205 30.6353 14.7023 27.5767 16.0813C26.2289 16.6942 24.7438 17.0312 23.1801 17.0312C20.5467 17.0312 18.126 16.0711 16.2319 14.464C16.1861 14.8657 16.1665 15.2777 16.1665 15.6931C16.1665 17.7905 16.7063 19.7586 17.6549 21.4508C18.4826 21.9547 19.3723 22.3429 20.3177 22.605C21.2304 22.8672 22.1922 23 23.1834 23C29.2875 23 34.2337 17.8484 34.2337 11.4983C34.2304 10.4666 34.1028 9.46559 33.8509 8.51562Z" fill="#4478BB"/>
<path d="M33.8514 8.51564C32.9779 11.9205 30.6357 14.7023 27.5771 16.0813C28.1692 14.6785 28.493 13.1259 28.493 11.4983C28.493 8.75738 27.5705 6.24117 26.0298 4.26634C26.4158 4.21867 26.8116 4.19824 27.2107 4.19824C29.2258 4.19824 31.1166 4.76005 32.7424 5.74746C33.2298 6.6055 33.6028 7.53503 33.8514 8.51564Z" fill="#F48020"/>
<path d="M9.15626 11.5016C9.15626 8.66874 9.93482 6.02314 11.276 3.78613C5.76396 6.72795 2.08706 10.7015 0 13.3743C1.31505 15.2674 3.6082 18.0526 7.19023 20.2181C9.61751 21.6856 12.1135 22.5436 14.544 22.9965C11.2662 20.3237 9.15626 16.1697 9.15626 11.5016Z" fill="#02519E"/>
<path d="M46.3634 9.62564C45.0483 7.73252 42.7552 4.94732 39.1731 2.78522C36.7459 1.31772 34.2499 0.459686 31.8193 0.00683594C35.0971 2.67967 37.2071 6.83363 37.2071 11.5017C37.2071 14.3346 36.4285 16.9802 35.0873 19.2172C40.5994 16.2754 44.2763 12.2985 46.3634 9.62564Z" fill="#F48020"/>
</svg>
