<svg width="170" height="23" viewBox="0 0 170 23" fill="none" xmlns="http://www.w3.org/2000/svg">
<path d="M64.069 6.29834C64.6398 6.29834 65.2172 6.29834 65.8011 6.30468C66.3849 6.31103 66.9558 6.32372 67.5137 6.34275C68.0716 6.36178 68.5971 6.39985 69.0901 6.45061L68.9798 8.11285H64.9253C64.6723 8.11285 64.4777 8.1763 64.3544 8.30953C64.2246 8.44276 64.1663 8.62675 64.1663 8.88053V14.1464C64.1663 14.3939 64.2311 14.5842 64.3544 14.7174C64.4841 14.8507 64.6723 14.9141 64.9253 14.9141H68.9798L69.0901 16.5763C68.6036 16.6144 68.0716 16.6461 67.5137 16.6715C66.9493 16.6969 66.3784 16.7096 65.8011 16.7159C65.2237 16.7223 64.6398 16.7223 64.069 16.7223C63.3943 16.7223 62.8493 16.5319 62.4406 16.1449C62.0255 15.7579 61.8179 15.2504 61.8179 14.6349V8.37932C61.8179 7.75122 62.0255 7.24366 62.4406 6.86934C62.8493 6.48867 63.3943 6.29834 64.069 6.29834ZM62.0903 10.4857H68.4089V12.1035H62.0903V10.4857Z" fill="#133D65"/>
<path d="M79.6772 6.34253V15.8465C79.6772 16.3985 79.3983 16.6713 78.8339 16.6713H77.5494C77.2964 16.6713 77.1018 16.6142 76.9656 16.5C76.8358 16.3858 76.7126 16.2145 76.5958 15.9861L73.67 10.5679C73.5468 10.3395 73.43 10.0858 73.3132 9.8066C73.1965 9.52744 73.0992 9.25463 73.0148 9.00085H72.8462C72.8786 9.26732 72.9045 9.54013 72.924 9.81929C72.9435 10.0984 72.9564 10.3649 72.9564 10.6377V16.684H70.7378V7.16731C70.7378 6.62168 71.0232 6.34253 71.5941 6.34253H72.8656C73.1121 6.34253 73.3003 6.39963 73.4235 6.51383C73.5468 6.62803 73.6765 6.79933 73.7998 7.02773L76.6282 12.2809C76.7515 12.5093 76.8747 12.7631 77.011 13.0423C77.1407 13.3214 77.2705 13.6133 77.3937 13.9115H77.5754C77.5429 13.6133 77.5235 13.3214 77.504 13.0359C77.4845 12.7504 77.4781 12.4713 77.4781 12.1921L77.4651 6.34253H79.6772Z" fill="#133D65"/>
<path d="M90.4071 6.34253L87.5268 16.0432C87.4749 16.2208 87.3775 16.3731 87.2283 16.4936C87.0791 16.6142 86.904 16.6713 86.7029 16.6713H84.5621C84.348 16.6713 84.1664 16.6142 84.0171 16.4936C83.8679 16.3731 83.7771 16.2272 83.7317 16.0432L80.8384 6.34253H83.2581L85.1849 13.7973C85.2238 13.9876 85.2692 14.1779 85.3146 14.3746C85.36 14.5713 85.3989 14.7616 85.4314 14.9519H85.8271C85.8595 14.7616 85.8985 14.5649 85.9439 14.3683C85.9893 14.1716 86.0412 13.9749 86.0866 13.7846L88.0003 6.34887H90.4071V6.34253Z" fill="#133D65"/>
<path d="M95.6685 6.1333C96.5053 6.1333 97.2124 6.22212 97.7963 6.39342C98.3801 6.57107 98.8472 6.85657 99.1975 7.26261C99.5478 7.66866 99.8073 8.21428 99.9695 8.91217C100.132 9.60371 100.216 10.4729 100.216 11.507C100.216 12.5412 100.132 13.4104 99.9695 14.1019C99.8073 14.7935 99.5478 15.3454 99.1975 15.7451C98.8472 16.1512 98.3801 16.4367 97.7963 16.6143C97.2124 16.792 96.5053 16.8745 95.6685 16.8745C94.8316 16.8745 94.1245 16.7856 93.5406 16.6143C92.9568 16.443 92.4897 16.1512 92.1329 15.7451C91.7761 15.3391 91.5166 14.7935 91.3544 14.1019C91.1922 13.4104 91.1079 12.5412 91.1079 11.507C91.1079 10.4729 91.1922 9.60371 91.3544 8.91217C91.5166 8.22062 91.7761 7.66866 92.1329 7.26261C92.4897 6.85657 92.9568 6.57107 93.5406 6.39342C94.1245 6.22212 94.8316 6.1333 95.6685 6.1333ZM95.6685 7.94147C95.13 7.94147 94.7083 8.04932 94.4034 8.25869C94.0985 8.46806 93.8909 8.82969 93.7612 9.34359C93.6315 9.85749 93.5731 10.5808 93.5731 11.507C93.5731 12.427 93.6379 13.1439 93.7612 13.6642C93.8909 14.1844 94.105 14.546 94.4034 14.7554C94.7019 14.9648 95.1235 15.0726 95.6685 15.0726C96.2004 15.0726 96.6156 14.9648 96.914 14.7554C97.2124 14.546 97.4265 14.1844 97.5562 13.6642C97.686 13.1439 97.7444 12.427 97.7444 11.507C97.7444 10.5808 97.6795 9.85749 97.5562 9.34359C97.4265 8.82969 97.2124 8.46806 96.914 8.25869C96.6156 8.04932 96.2004 7.94147 95.6685 7.94147Z" fill="#133D65"/>
<path d="M109.966 6.34253L106.398 13.3912H104.193L100.612 6.34253H103.045L104.822 10.1429C104.913 10.3395 104.991 10.5552 105.049 10.7836C105.107 11.012 105.166 11.2341 105.218 11.4435H105.373C105.432 11.2341 105.497 11.012 105.555 10.7836C105.614 10.5552 105.685 10.3395 105.769 10.1429L107.527 6.34253H109.966ZM106.457 12.0018V16.6713H104.115V12.0018H106.457Z" fill="#133D65"/>
<path d="M114.404 6.146C114.923 6.146 115.487 6.17137 116.103 6.22847C116.713 6.28557 117.31 6.39343 117.894 6.56473L117.738 8.08105C117.29 8.06836 116.765 8.06202 116.162 8.04933C115.558 8.03664 114.968 8.03664 114.384 8.03664C114.099 8.03664 113.859 8.04299 113.657 8.06202C113.456 8.08105 113.301 8.11912 113.177 8.18256C113.054 8.24601 112.97 8.34752 112.918 8.47441C112.866 8.6013 112.84 8.78529 112.84 9.01369C112.84 9.36263 112.924 9.61641 113.093 9.77502C113.262 9.93363 113.547 10.0796 113.956 10.2064L115.993 10.8472C116.843 11.1264 117.427 11.5071 117.751 11.9829C118.075 12.4587 118.237 13.0932 118.237 13.8672C118.237 14.4572 118.166 14.9457 118.023 15.3328C117.881 15.7198 117.654 16.0243 117.349 16.2464C117.044 16.4684 116.642 16.6207 116.142 16.7158C115.643 16.811 115.033 16.8554 114.306 16.8554C113.956 16.8554 113.463 16.83 112.821 16.7856C112.178 16.7412 111.445 16.627 110.615 16.4494L110.771 14.8315C111.374 14.8442 111.893 14.8569 112.341 14.8696C112.782 14.8823 113.164 14.895 113.482 14.9013C113.8 14.9077 114.073 14.9077 114.306 14.9077C114.715 14.9077 115.033 14.8823 115.26 14.8315C115.487 14.7808 115.649 14.6793 115.74 14.5334C115.831 14.3811 115.876 14.1717 115.876 13.8926C115.876 13.6515 115.844 13.4611 115.779 13.3152C115.714 13.1693 115.604 13.0551 115.454 12.9726C115.305 12.8901 115.104 12.814 114.851 12.7379L112.71 12.021C111.906 11.7291 111.335 11.3548 110.998 10.8853C110.66 10.4158 110.492 9.8004 110.492 9.03272C110.492 8.43634 110.563 7.94782 110.712 7.5735C110.861 7.19917 111.089 6.90733 111.4 6.69796C111.711 6.4886 112.114 6.34267 112.607 6.26654C113.113 6.19041 113.709 6.146 114.404 6.146Z" fill="#133D65"/>
<path d="M131.452 6.34253L128.578 16.0432C128.526 16.2208 128.429 16.3731 128.28 16.4936C128.131 16.6142 127.955 16.6713 127.754 16.6713H125.613C125.399 16.6713 125.218 16.6142 125.069 16.4936C124.919 16.3731 124.829 16.2272 124.783 16.0432L121.883 6.34253H124.303L126.23 13.7973C126.269 13.9876 126.314 14.1779 126.36 14.3746C126.405 14.5713 126.444 14.7616 126.476 14.9519H126.872C126.904 14.7616 126.943 14.5649 126.989 14.3683C127.034 14.1716 127.086 13.9749 127.131 13.7846L129.045 6.34887H131.452V6.34253Z" fill="#133D65"/>
<path d="M134.969 6.34253V16.6713H132.64V6.34253H134.969Z" fill="#133D65"/>
<path d="M140.586 6.146C141.105 6.146 141.669 6.17137 142.286 6.22847C142.895 6.28557 143.492 6.39343 144.076 6.56473L143.92 8.07471C143.473 8.06202 142.947 8.05567 142.344 8.04299C141.747 8.03664 141.15 8.03664 140.573 8.03664C140.288 8.03664 140.048 8.04299 139.846 8.06202C139.645 8.08105 139.49 8.11912 139.366 8.18256C139.243 8.24601 139.159 8.34752 139.107 8.47441C139.055 8.6013 139.029 8.78529 139.029 9.01369C139.029 9.36263 139.113 9.61641 139.282 9.77502C139.451 9.93363 139.736 10.0796 140.145 10.2064L142.182 10.8472C143.025 11.1264 143.616 11.5071 143.94 11.9829C144.264 12.4587 144.426 13.0932 144.426 13.8672C144.426 14.4572 144.355 14.9457 144.212 15.3328C144.07 15.7198 143.843 16.0243 143.538 16.2464C143.233 16.4684 142.831 16.6207 142.331 16.7158C141.832 16.811 141.222 16.8554 140.495 16.8554C140.145 16.8554 139.652 16.83 139.01 16.7856C138.367 16.7412 137.634 16.627 136.804 16.4494L136.96 14.8315C137.563 14.8442 138.082 14.8569 138.53 14.8696C138.971 14.8823 139.353 14.895 139.671 14.9013C139.989 14.9077 140.262 14.9077 140.495 14.9077C140.904 14.9077 141.222 14.8823 141.449 14.8315C141.676 14.7808 141.838 14.6793 141.929 14.5334C142.02 14.3811 142.065 14.1717 142.065 13.8926C142.065 13.6515 142.033 13.4611 141.968 13.3152C141.903 13.1693 141.793 13.0551 141.643 12.9726C141.494 12.8901 141.293 12.814 141.04 12.7379L138.899 12.021C138.095 11.7291 137.524 11.3548 137.187 10.8853C136.849 10.4158 136.681 9.8004 136.681 9.03272C136.681 8.43634 136.752 7.94782 136.901 7.5735C137.05 7.19917 137.277 6.90733 137.589 6.69796C137.9 6.4886 138.302 6.34267 138.796 6.26654C139.289 6.19041 139.892 6.146 140.586 6.146Z" fill="#133D65"/>
<path d="M148.41 6.34253V16.6713H146.081V6.34253H148.41Z" fill="#133D65"/>
<path d="M154.742 6.1333C155.579 6.1333 156.286 6.22212 156.87 6.39342C157.453 6.57107 157.92 6.85657 158.271 7.26261C158.621 7.66866 158.881 8.21428 159.043 8.91217C159.205 9.60371 159.289 10.4729 159.289 11.507C159.289 12.5412 159.205 13.4104 159.043 14.1019C158.881 14.7935 158.621 15.3454 158.271 15.7451C157.92 16.1512 157.453 16.4367 156.87 16.6143C156.286 16.792 155.579 16.8745 154.742 16.8745C153.905 16.8745 153.198 16.7856 152.614 16.6143C152.03 16.443 151.563 16.1512 151.206 15.7451C150.849 15.3391 150.59 14.7935 150.428 14.1019C150.265 13.4104 150.181 12.5412 150.181 11.507C150.181 10.4729 150.265 9.60371 150.428 8.91217C150.59 8.22062 150.849 7.66866 151.206 7.26261C151.563 6.85657 152.03 6.57107 152.614 6.39342C153.198 6.22212 153.905 6.1333 154.742 6.1333ZM154.742 7.94147C154.203 7.94147 153.782 8.04932 153.477 8.25869C153.172 8.46806 152.964 8.82969 152.834 9.34359C152.705 9.85749 152.646 10.5808 152.646 11.507C152.646 12.427 152.711 13.1439 152.834 13.6642C152.964 14.1844 153.178 14.546 153.477 14.7554C153.775 14.9648 154.197 15.0726 154.742 15.0726C155.274 15.0726 155.689 14.9648 155.987 14.7554C156.286 14.546 156.5 14.1844 156.629 13.6642C156.759 13.1439 156.818 12.427 156.818 11.507C156.818 10.5808 156.753 9.85749 156.629 9.34359C156.5 8.82969 156.286 8.46806 155.987 8.25869C155.689 8.04932 155.274 7.94147 154.742 7.94147Z" fill="#133D65"/>
<path d="M170 6.34253V15.8465C170 16.3985 169.721 16.6713 169.156 16.6713H167.872C167.619 16.6713 167.424 16.6142 167.288 16.5C167.152 16.3858 167.035 16.2145 166.918 15.9861L163.992 10.5679C163.869 10.3395 163.752 10.0858 163.636 9.8066C163.519 9.52744 163.421 9.25463 163.337 9.00085H163.168C163.201 9.26732 163.227 9.54013 163.246 9.81929C163.266 10.0984 163.279 10.3649 163.279 10.6377V16.684H161.06V7.16731C161.06 6.62168 161.346 6.34253 161.916 6.34253H163.188C163.434 6.34253 163.616 6.39963 163.746 6.51383C163.876 6.62803 163.999 6.79933 164.122 7.02773L166.95 12.2809C167.074 12.5093 167.203 12.7631 167.333 13.0423C167.463 13.3214 167.593 13.6133 167.716 13.9115H167.898C167.865 13.6133 167.846 13.3214 167.826 13.0359C167.807 12.7504 167.8 12.4713 167.8 12.1921L167.787 6.34253H170Z" fill="#133D65"/>
<path d="M23.1803 0C22.1892 0 21.2274 0.132791 20.3147 0.394967C16.5168 1.45048 13.5269 4.56255 12.5128 8.51562C12.2609 9.46558 12.1333 10.4666 12.1333 11.4983C12.1333 15.751 14.3545 19.4691 17.6519 21.4542C16.7033 19.762 16.1635 17.7939 16.1635 15.6965C16.1635 15.2811 16.1831 14.8691 16.2289 14.4674C16.7719 9.10126 20.8708 4.83494 26.0263 4.26973C26.4124 4.22206 26.8082 4.20163 27.2073 4.20163C29.2224 4.20163 31.1132 4.76343 32.739 5.75085C30.8384 2.31192 27.2662 0 23.1803 0Z" fill="#045599"/>
<path d="M33.8509 8.51562C32.9775 11.9205 30.6353 14.7023 27.5767 16.0813C26.2289 16.6942 24.7438 17.0312 23.1801 17.0312C20.5467 17.0312 18.126 16.0711 16.2319 14.464C16.1861 14.8657 16.1665 15.2777 16.1665 15.6931C16.1665 17.7905 16.7063 19.7586 17.6549 21.4508C18.4826 21.9547 19.3723 22.3429 20.3177 22.605C21.2304 22.8672 22.1922 23 23.1834 23C29.2875 23 34.2337 17.8484 34.2337 11.4983C34.2304 10.4666 34.1028 9.46559 33.8509 8.51562Z" fill="#4478BB"/>
<path d="M33.8514 8.51564C32.9779 11.9205 30.6357 14.7023 27.5771 16.0813C28.1692 14.6785 28.493 13.1259 28.493 11.4983C28.493 8.75738 27.5705 6.24117 26.0298 4.26634C26.4158 4.21867 26.8116 4.19824 27.2107 4.19824C29.2258 4.19824 31.1166 4.76005 32.7424 5.74746C33.2298 6.6055 33.6028 7.53503 33.8514 8.51564Z" fill="#F48020"/>
<path d="M9.15626 11.5016C9.15626 8.66874 9.93482 6.02314 11.276 3.78613C5.76396 6.72795 2.08706 10.7015 0 13.3743C1.31505 15.2674 3.6082 18.0526 7.19023 20.2181C9.61751 21.6856 12.1135 22.5436 14.544 22.9965C11.2662 20.3237 9.15626 16.1697 9.15626 11.5016Z" fill="#02519E"/>
<path d="M46.3634 9.62564C45.0483 7.73252 42.7552 4.94732 39.1731 2.78522C36.7459 1.31772 34.2499 0.459686 31.8193 0.00683594C35.0971 2.67967 37.2071 6.83363 37.2071 11.5017C37.2071 14.3346 36.4285 16.9802 35.0873 19.2172C40.5994 16.2754 44.2763 12.2985 46.3634 9.62564Z" fill="#F48020"/>
</svg>
