<svg width="40" height="46" viewBox="0 0 40 46" fill="none" xmlns="http://www.w3.org/2000/svg">
<path d="M12.3943 4.54285C9.67312 5.2928 6.97043 6.10828 4.28858 6.98856C4.04369 7.06789 3.82601 7.2144 3.66032 7.41141C3.49464 7.60841 3.38761 7.84799 3.35144 8.10285C1.76859 19.98 5.42572 28.6457 9.78858 34.3543C11.6358 36.7954 13.8383 38.9459 16.3229 40.7342C17.3114 41.4314 18.1857 41.9342 18.8743 42.2571C19.2171 42.42 19.4971 42.5285 19.7114 42.5942C19.8051 42.6271 19.9018 42.651 20 42.6657C20.0971 42.6499 20.1926 42.626 20.2857 42.5942C20.5029 42.5285 20.7829 42.42 21.1257 42.2571C21.8114 41.9342 22.6886 41.4285 23.6771 40.7342C26.1617 38.9459 28.3642 36.7953 30.2114 34.3543C34.5743 28.6485 38.2314 19.98 36.6485 8.10285C36.6127 7.84787 36.5058 7.60813 36.3401 7.41108C36.1743 7.21402 35.9565 7.06759 35.7114 6.98856C33.8514 6.37999 30.7114 5.38857 27.6057 4.54571C24.4343 3.68571 21.5171 3.04857 20 3.04857C18.4857 3.04857 15.5657 3.68571 12.3943 4.54571V4.54285ZM11.6343 1.6C14.7343 0.757142 18.0286 0 20 0C21.9714 0 25.2657 0.757142 28.3657 1.6C31.5371 2.45714 34.7343 3.47143 36.6143 4.08571C37.4003 4.34528 38.0971 4.82132 38.6248 5.45914C39.1524 6.09696 39.4894 6.87068 39.5971 7.69142C41.3 20.4828 37.3485 29.9628 32.5543 36.2342C30.5212 38.917 28.0971 41.2795 25.3628 43.2428C24.4174 43.9222 23.4157 44.5196 22.3686 45.0285C21.5686 45.4057 20.7086 45.7142 20 45.7142C19.2914 45.7142 18.4343 45.4057 17.6314 45.0285C16.5843 44.5196 15.5826 43.9222 14.6371 43.2428C11.9029 41.2795 9.47881 38.917 7.44572 36.2342C2.65144 29.9628 -1.29998 20.4828 0.402872 7.69142C0.51055 6.87068 0.847566 6.09696 1.37521 5.45914C1.90284 4.82132 2.5997 4.34528 3.38573 4.08571C6.11484 3.19088 8.86516 2.36207 11.6343 1.6Z" fill="#045599"/>
<path d="M28.1534 14.7029C28.2865 14.8356 28.392 14.9932 28.464 15.1668C28.536 15.3404 28.5731 15.5264 28.5731 15.7143C28.5731 15.9022 28.536 16.0883 28.464 16.2619C28.392 16.4354 28.2865 16.5931 28.1534 16.7258L19.582 25.2972C19.4493 25.4302 19.2917 25.5358 19.1181 25.6078C18.9445 25.6798 18.7585 25.7169 18.5706 25.7169C18.3827 25.7169 18.1966 25.6798 18.0231 25.6078C17.8495 25.5358 17.6919 25.4302 17.5591 25.2972L13.2734 21.0115C13.1406 20.8786 13.0353 20.721 12.9634 20.5474C12.8915 20.3739 12.8545 20.1879 12.8545 20C12.8545 19.8122 12.8915 19.6262 12.9634 19.4527C13.0353 19.2791 13.1406 19.1214 13.2734 18.9886C13.4063 18.8558 13.5639 18.7504 13.7375 18.6785C13.911 18.6067 14.097 18.5697 14.2849 18.5697C14.4727 18.5697 14.6587 18.6067 14.8322 18.6785C15.0058 18.7504 15.1635 18.8558 15.2963 18.9886L18.5706 22.2657L26.1306 14.7029C26.2633 14.5699 26.4209 14.4643 26.5945 14.3923C26.768 14.3203 26.9541 14.2832 27.142 14.2832C27.3299 14.2832 27.516 14.3203 27.6895 14.3923C27.8631 14.4643 28.0207 14.5699 28.1534 14.7029Z" fill="#045599"/>
</svg>
